{
    "accessors" : [
        {
            "bufferView" : 0,
            "componentType" : 5125,
            "count" : 3022848,
            "max" : [
                2015231
            ],
            "min" : [
                0
            ],
            "type" : "SCALAR"
        },
        {
            "bufferView" : 1,
            "componentType" : 5126,
            "count" : 2015232,
            "max" : [
                1.3289921283721924,
                0.9392809271812439,
                0.8226450681686401
            ],
            "min" : [
                -1.3289920091629028,
                -0.9719119668006897,
                -0.7783539295196533
            ],
            "type" : "VEC3"
        },
        {
            "bufferView" : 2,
            "componentType" : 5126,
            "count" : 2015232,
            "max" : [
                0.9999973773956299,
                0.9999942183494568,
                1.0
            ],
            "min" : [
                -0.9999973177909851,
                -0.9999924302101135,
                -0.9999735951423645
            ],
            "type" : "VEC3"
        }
    ],
    "asset" : {
        "generator" : "Khronos Blender glTF 2.0 exporter",
        "version" : "2.0"
    },
    "bufferViews" : [
        {
            "buffer" : 0,
            "byteLength" : 12091392,
            "byteOffset" : 0,
            "target" : 34963
        },
        {
            "buffer" : 0,
            "byteLength" : 24182784,
            "byteOffset" : 12091392,
            "target" : 34962
        },
        {
            "buffer" : 0,
            "byteLength" : 24182784,
            "byteOffset" : 36274176,
            "target" : 34962
        }
    ],
    "buffers" : [
        {
            "byteLength" : 60456960,
            "uri" : "monkeyModel.bin"
        }
    ],
    "materials" : [
        {
            "name" : "Material.001",
            "pbrMetallicRoughness" : {
                "roughnessFactor" : 0.43589746952056885
            }
        }
    ],
    "meshes" : [
        {
            "name" : "Suzanne",
            "primitives" : [
                {
                    "attributes" : {
                        "NORMAL" : 2,
                        "POSITION" : 1
                    },
                    "indices" : 0,
                    "material" : 0
                }
            ]
        }
    ],
    "nodes" : [
        {
            "mesh" : 0,
            "name" : "Suzanne",
            "scale" : [
                3.0595531463623047,
                3.0595531463623047,
                3.0595531463623047
            ]
        }
    ],
    "scene" : 0,
    "scenes" : [
        {
            "name" : "Scene",
            "nodes" : [
                0
            ]
        }
    ]
}
