{
  "accessors": [
    {
      "bufferView": 1,
      "componentType": 5126,
      "count": 1071,
      "max": [
        1.0672661066055298,
        0.19372051954269409,
        0.85722064971923828
      ],
      "min": [
        0.74683535099029541,
        -0.24857906997203827,
        0.1077442467212677
      ],
      "type": "VEC3"
    },
    {
      "bufferView": 1,
      "byteOffset": 12852,
      "componentType": 5126,
      "count": 1071,
      "max": [
        0.99999988079071045,
        0.99999916553497314,
        0.9999997615814209
      ],
      "min": [
        -0.99999892711639404,
        -0.99998581409454346,
        -1
      ],
      "type": "VEC3"
    },
    {
      "bufferView": 2,
      "componentType": 5126,
      "count": 1071,
      "max": [
        0.99999988079071045,
        0.99999094009399414,
        0.91593044996261597,
        1
      ],
      "min": [
        -0.99999964237213135,
        -1,
        -0.53882932662963867,
        1
      ],
      "type": "VEC4"
    },
    {
      "bufferView": 0,
      "componentType": 5125,
      "count": 5460,
      "max": [
        1070
      ],
      "min": [
        0
      ],
      "type": "SCALAR"
    },
    {
      "bufferView": 1,
      "byteOffset": 25704,
      "componentType": 5126,
      "count": 746,
      "max": [
        1.0718662738800049,
        0.30876564979553223,
        0.85736000537872314
      ],
      "min": [
        -1.0827245712280273,
        0.18964028358459473,
        0.098051935434341431
      ],
      "type": "VEC3"
    },
    {
      "bufferView": 1,
      "byteOffset": 34656,
      "componentType": 5126,
      "count": 746,
      "max": [
        1,
        1,
        0.99999988079071045
      ],
      "min": [
        -1,
        -1,
        -1
      ],
      "type": "VEC3"
    },
    {
      "bufferView": 2,
      "byteOffset": 17136,
      "componentType": 5126,
      "count": 746,
      "max": [
        0.59364688396453857,
        1,
        1,
        1
      ],
      "min": [
        -0.68889093399047852,
        -1,
        -1,
        1
      ],
      "type": "VEC4"
    },
    {
      "bufferView": 0,
      "byteOffset": 21840,
      "componentType": 5125,
      "count": 3720,
      "max": [
        745
      ],
      "min": [
        0
      ],
      "type": "SCALAR"
    },
    {
      "bufferView": 1,
      "byteOffset": 43608,
      "componentType": 5126,
      "count": 799,
      "max": [
        0.7507970929145813,
        0.18880689144134521,
        0.34231647849082947
      ],
      "min": [
        -0.76201897859573364,
        -0.24167740345001221,
        0.17560520768165588
      ],
      "type": "VEC3"
    },
    {
      "bufferView": 1,
      "byteOffset": 53196,
      "componentType": 5126,
      "count": 799,
      "max": [
        1,
        1,
        0.99999880790710449
      ],
      "min": [
        -1,
        -0.99999833106994629,
        -1
      ],
      "type": "VEC3"
    },
    {
      "bufferView": 2,
      "byteOffset": 29072,
      "componentType": 5126,
      "count": 799,
      "max": [
        0.83411949872970581,
        1,
        1,
        1
      ],
      "min": [
        -0.5227925181388855,
        -0.93472570180892944,
        -1,
        1
      ],
      "type": "VEC4"
    },
    {
      "bufferView": 0,
      "byteOffset": 36720,
      "componentType": 5125,
      "count": 3984,
      "max": [
        798
      ],
      "min": [
        0
      ],
      "type": "SCALAR"
    },
    {
      "bufferView": 1,
      "byteOffset": 62784,
      "componentType": 5126,
      "count": 367,
      "max": [
        0.75146645307540894,
        0.1905510425567627,
        0.17897261679172516
      ],
      "min": [
        -0.76380354166030884,
        -0.24410843849182129,
        0.1080719381570816
      ],
      "type": "VEC3"
    },
    {
      "bufferView": 1,
      "byteOffset": 67188,
      "componentType": 5126,
      "count": 367,
      "max": [
        1,
        1,
        1
      ],
      "min": [
        -1,
        -0.99981844425201416,
        -1
      ],
      "type": "VEC3"
    },
    {
      "bufferView": 2,
      "byteOffset": 41856,
      "componentType": 5126,
      "count": 367,
      "max": [
        0.58693110942840576,
        1,
        1,
        1
      ],
      "min": [
        -0.60304939746856689,
        -1,
        -1,
        1
      ],
      "type": "VEC4"
    },
    {
      "bufferView": 0,
      "byteOffset": 52656,
      "componentType": 5125,
      "count": 1680,
      "max": [
        366
      ],
      "min": [
        0
      ],
      "type": "SCALAR"
    },
    {
      "bufferView": 1,
      "byteOffset": 71592,
      "componentType": 5126,
      "count": 1066,
      "max": [
        -0.75829553604125977,
        0.19573104381561279,
        0.85720640420913696
      ],
      "min": [
        -1.0778684616088867,
        -0.24456039071083069,
        0.10774573683738708
      ],
      "type": "VEC3"
    },
    {
      "bufferView": 1,
      "byteOffset": 84384,
      "componentType": 5126,
      "count": 1066,
      "max": [
        0.9999997615814209,
        1,
        0.99999892711639404
      ],
      "min": [
        -1,
        -0.99999904632568359,
        -1
      ],
      "type": "VEC3"
    },
    {
      "bufferView": 2,
      "byteOffset": 47728,
      "componentType": 5126,
      "count": 1066,
      "max": [
        0.9999992847442627,
        1,
        0.91541177034378052,
        1
      ],
      "min": [
        -1,
        -0.99996662139892578,
        -0.88502967357635498,
        1
      ],
      "type": "VEC4"
    },
    {
      "bufferView": 0,
      "byteOffset": 59376,
      "componentType": 5125,
      "count": 5460,
      "max": [
        1065
      ],
      "min": [
        0
      ],
      "type": "SCALAR"
    },
    {
      "bufferView": 1,
      "byteOffset": 97176,
      "componentType": 5126,
      "count": 24,
      "max": [
        1.0612571239471436,
        0.30385220050811768,
        0.1340993195772171
      ],
      "min": [
        0.95340776443481445,
        0.19599235057830811,
        -0.042998071759939194
      ],
      "type": "VEC3"
    },
    {
      "bufferView": 1,
      "byteOffset": 97464,
      "componentType": 5126,
      "count": 24,
      "max": [
        1,
        1,
        1
      ],
      "min": [
        -1,
        -1,
        -1
      ],
      "type": "VEC3"
    },
    {
      "bufferView": 2,
      "byteOffset": 64784,
      "componentType": 5126,
      "count": 24,
      "max": [
        1,
        1,
        7.6563672735119326e-08,
        1
      ],
      "min": [
        -1,
        -1,
        -3.0628453373537923e-07,
        1
      ],
      "type": "VEC4"
    },
    {
      "bufferView": 0,
      "byteOffset": 81216,
      "componentType": 5125,
      "count": 36,
      "max": [
        23
      ],
      "min": [
        0
      ],
      "type": "SCALAR"
    },
    {
      "bufferView": 1,
      "byteOffset": 97752,
      "componentType": 5126,
      "count": 24,
      "max": [
        -0.96177846193313599,
        0.30027639865875244,
        0.1340993195772171
      ],
      "min": [
        -1.0696280002593994,
        0.19241654872894287,
        -0.042998071759939194
      ],
      "type": "VEC3"
    },
    {
      "bufferView": 1,
      "byteOffset": 98040,
      "componentType": 5126,
      "count": 24,
      "max": [
        1,
        1,
        1
      ],
      "min": [
        -1,
        -1,
        -1
      ],
      "type": "VEC3"
    },
    {
      "bufferView": 2,
      "byteOffset": 65168,
      "componentType": 5126,
      "count": 24,
      "max": [
        1,
        1,
        3.2427490737063636e-07,
        1
      ],
      "min": [
        -1,
        -1,
        -3.0628393687948119e-07,
        1
      ],
      "type": "VEC4"
    },
    {
      "bufferView": 0,
      "byteOffset": 81360,
      "componentType": 5125,
      "count": 36,
      "max": [
        23
      ],
      "min": [
        0
      ],
      "type": "SCALAR"
    },
    {
      "bufferView": 1,
      "byteOffset": 98328,
      "componentType": 5126,
      "count": 24,
      "max": [
        -0.96177846193313599,
        -0.12302267551422119,
        0.1340993195772171
      ],
      "min": [
        -1.0696280002593994,
        -0.23088228702545166,
        -0.042998071759939194
      ],
      "type": "VEC3"
    },
    {
      "bufferView": 1,
      "byteOffset": 98616,
      "componentType": 5126,
      "count": 24,
      "max": [
        1,
        1,
        1
      ],
      "min": [
        -1,
        -1,
        -1
      ],
      "type": "VEC3"
    },
    {
      "bufferView": 2,
      "byteOffset": 65552,
      "componentType": 5126,
      "count": 24,
      "max": [
        1,
        1,
        7.6563864581657981e-08,
        1
      ],
      "min": [
        -1,
        -1,
        0,
        1
      ],
      "type": "VEC4"
    },
    {
      "bufferView": 0,
      "byteOffset": 81504,
      "componentType": 5125,
      "count": 36,
      "max": [
        23
      ],
      "min": [
        0
      ],
      "type": "SCALAR"
    },
    {
      "bufferView": 1,
      "byteOffset": 98904,
      "componentType": 5126,
      "count": 24,
      "max": [
        1.0612571239471436,
        -0.12302267551422119,
        0.1340993195772171
      ],
      "min": [
        0.95340776443481445,
        -0.23088228702545166,
        -0.042998071759939194
      ],
      "type": "VEC3"
    },
    {
      "bufferView": 1,
      "byteOffset": 99192,
      "componentType": 5126,
      "count": 24,
      "max": [
        1,
        1,
        1
      ],
      "min": [
        -1,
        -1,
        -1
      ],
      "type": "VEC3"
    },
    {
      "bufferView": 2,
      "byteOffset": 65936,
      "componentType": 5126,
      "count": 24,
      "max": [
        1,
        1,
        3.2427544738311553e-07,
        1
      ],
      "min": [
        -1,
        -1,
        0,
        1
      ],
      "type": "VEC4"
    },
    {
      "bufferView": 0,
      "byteOffset": 81648,
      "componentType": 5125,
      "count": 36,
      "max": [
        23
      ],
      "min": [
        0
      ],
      "type": "SCALAR"
    }
  ],
  "asset": {
    "extras": {
      "author": "ankitpassi (https://sketchfab.com/ankitpassi)",
      "license": "CC-BY-4.0 (http://creativecommons.org/licenses/by/4.0/)",
      "source": "https://sketchfab.com/models/34306047a4134e52b0201300686be3c5",
      "title": "Modular Couch - Low Poly"
    },
    "generator": "Sketchfab-3.18.7",
    "version": "2.0"
  },
  "bufferViews": [
    {
      "buffer": 0,
      "byteLength": 81792,
      "byteOffset": 0,
      "name": "floatBufferViews",
      "target": 34963
    },
    {
      "buffer": 0,
      "byteLength": 99480,
      "byteOffset": 81792,
      "byteStride": 12,
      "name": "floatBufferViews",
      "target": 34962
    },
    {
      "buffer": 0,
      "byteLength": 66320,
      "byteOffset": 181272,
      "byteStride": 16,
      "name": "floatBufferViews",
      "target": 34962
    }
  ],
  "buffers": [
    {
      "byteLength": 247592,
      "uri": "scene.bin"
    }
  ],
  "extensionsRequired": [
    "KHR_materials_pbrSpecularGlossiness"
  ],
  "extensionsUsed": [
    "KHR_materials_pbrSpecularGlossiness"
  ],
  "materials": [
    {
      "doubleSided": true,
      "emissiveFactor": [
        0,
        0,
        0
      ],
      "extensions": {
        "KHR_materials_pbrSpecularGlossiness": {
          "diffuseFactor": [
            0.80000000000000004,
            0.80000000000000004,
            0.80000000000000004,
            1
          ],
          "glossinessFactor": 0.042294850500000002,
          "specularFactor": [
            0,
            0,
            0
          ]
        }
      },
      "name": "Material.006"
    },
    {
      "doubleSided": true,
      "emissiveFactor": [
        0,
        0,
        0
      ],
      "extensions": {
        "KHR_materials_pbrSpecularGlossiness": {
          "diffuseFactor": [
            0.80000000000000004,
            0.80000000000000004,
            0.80000000000000004,
            1
          ],
          "glossinessFactor": 0.042294850500000002,
          "specularFactor": [
            0,
            0,
            0
          ]
        }
      },
      "name": "Material.004"
    },
    {
      "doubleSided": true,
      "emissiveFactor": [
        0,
        0,
        0
      ],
      "extensions": {
        "KHR_materials_pbrSpecularGlossiness": {
          "diffuseFactor": [
            0.80000000000000004,
            0.80000000000000004,
            0.80000000000000004,
            1
          ],
          "glossinessFactor": 0.042294850500000002,
          "specularFactor": [
            0,
            0,
            0
          ]
        }
      },
      "name": "Material.008"
    },
    {
      "doubleSided": true,
      "emissiveFactor": [
        0,
        0,
        0
      ],
      "extensions": {
        "KHR_materials_pbrSpecularGlossiness": {
          "diffuseFactor": [
            0.80000000000000004,
            0.80000000000000004,
            0.80000000000000004,
            1
          ],
          "glossinessFactor": 0.042294850500000002,
          "specularFactor": [
            0,
            0,
            0
          ]
        }
      },
      "name": "Material.007"
    },
    {
      "doubleSided": true,
      "emissiveFactor": [
        0,
        0,
        0
      ],
      "extensions": {
        "KHR_materials_pbrSpecularGlossiness": {
          "diffuseFactor": [
            0.80000000000000004,
            0.80000000000000004,
            0.80000000000000004,
            1
          ],
          "glossinessFactor": 0.042294850500000002,
          "specularFactor": [
            0,
            0,
            0
          ]
        }
      },
      "name": "Material.005"
    },
    {
      "doubleSided": true,
      "emissiveFactor": [
        0,
        0,
        0
      ],
      "extensions": {
        "KHR_materials_pbrSpecularGlossiness": {
          "diffuseFactor": [
            0.80000000000000004,
            0.80000000000000004,
            0.80000000000000004,
            1
          ],
          "glossinessFactor": 0.63243140239999995,
          "specularFactor": [
            0.13586128049999999,
            0.13586128049999999,
            0.13586128049999999
          ]
        }
      },
      "name": "couch_standMaterial"
    }
  ],
  "meshes": [
    {
      "name": "couch_armrest2_low_Material.006_0",
      "primitives": [
        {
          "attributes": {
            "NORMAL": 1,
            "POSITION": 0,
            "TANGENT": 2
          },
          "indices": 3,
          "material": 0,
          "mode": 4
        }
      ]
    },
    {
      "name": "couch_backpart_low_Material.004_0",
      "primitives": [
        {
          "attributes": {
            "NORMAL": 5,
            "POSITION": 4,
            "TANGENT": 6
          },
          "indices": 7,
          "material": 1,
          "mode": 4
        }
      ]
    },
    {
      "name": "couch_seat_low_Material.008_0",
      "primitives": [
        {
          "attributes": {
            "NORMAL": 9,
            "POSITION": 8,
            "TANGENT": 10
          },
          "indices": 11,
          "material": 2,
          "mode": 4
        }
      ]
    },
    {
      "name": "couch_base_low_Material.007_0",
      "primitives": [
        {
          "attributes": {
            "NORMAL": 13,
            "POSITION": 12,
            "TANGENT": 14
          },
          "indices": 15,
          "material": 3,
          "mode": 4
        }
      ]
    },
    {
      "name": "couch_armrest1_low_Material.005_0",
      "primitives": [
        {
          "attributes": {
            "NORMAL": 17,
            "POSITION": 16,
            "TANGENT": 18
          },
          "indices": 19,
          "material": 4,
          "mode": 4
        }
      ]
    },
    {
      "name": "couch_stand3_couch_standMaterial_0",
      "primitives": [
        {
          "attributes": {
            "NORMAL": 21,
            "POSITION": 20,
            "TANGENT": 22
          },
          "indices": 23,
          "material": 5,
          "mode": 4
        }
      ]
    },
    {
      "name": "couch_stand4_couch_standMaterial_0",
      "primitives": [
        {
          "attributes": {
            "NORMAL": 25,
            "POSITION": 24,
            "TANGENT": 26
          },
          "indices": 27,
          "material": 5,
          "mode": 4
        }
      ]
    },
    {
      "name": "couch_stand1_couch_standMaterial_0",
      "primitives": [
        {
          "attributes": {
            "NORMAL": 29,
            "POSITION": 28,
            "TANGENT": 30
          },
          "indices": 31,
          "material": 5,
          "mode": 4
        }
      ]
    },
    {
      "name": "couch_stand2_couch_standMaterial_0",
      "primitives": [
        {
          "attributes": {
            "NORMAL": 33,
            "POSITION": 32,
            "TANGENT": 34
          },
          "indices": 35,
          "material": 5,
          "mode": 4
        }
      ]
    }
  ],
  "nodes": [
    {
      "children": [
        1
      ],
      "name": "RootNode (gltf orientation matrix)",
      "rotation": [
        -0.70710678118654746,
        -0,
        -0,
        0.70710678118654757
      ]
    },
    {
      "children": [
        2
      ],
      "name": "RootNode (model correction matrix)"
    },
    {
      "children": [
        3
      ],
      "matrix": [
        1,
        0,
        0,
        0,
        0,
        0,
        1,
        0,
        0,
        -1,
        0,
        0,
        0,
        0,
        0,
        1
      ],
      "name": "6bb567271b764875945556b02513aa42.fbx"
    },
    {
      "children": [
        4,
        6,
        8,
        10,
        12,
        14,
        16,
        18,
        20
      ],
      "name": "RootNode"
    },
    {
      "children": [
        5
      ],
      "matrix": [
        100,
        0,
        0,
        0,
        0,
        -1.6292067939183141e-05,
        -99.999999999998678,
        0,
        0,
        99.999999999998678,
        -1.6292067939183141e-05,
        0,
        0,
        0,
        0,
        1
      ],
      "name": "couch_armrest2_low"
    },
    {
      "mesh": 0,
      "name": "couch_armrest2_low_Material.006_0"
    },
    {
      "children": [
        7
      ],
      "matrix": [
        100,
        0,
        0,
        0,
        0,
        -1.6292067939183141e-05,
        -99.999999999998678,
        0,
        0,
        99.999999999998678,
        -1.6292067939183141e-05,
        0,
        0,
        0,
        0,
        1
      ],
      "name": "couch_backpart_low"
    },
    {
      "mesh": 1,
      "name": "couch_backpart_low_Material.004_0"
    },
    {
      "children": [
        9
      ],
      "matrix": [
        100,
        0,
        0,
        0,
        0,
        -1.6292067939183141e-05,
        -99.999999999998678,
        0,
        0,
        99.999999999998678,
        -1.6292067939183141e-05,
        0,
        0,
        0,
        0,
        1
      ],
      "name": "couch_seat_low"
    },
    {
      "mesh": 2,
      "name": "couch_seat_low_Material.008_0"
    },
    {
      "children": [
        11
      ],
      "matrix": [
        100,
        0,
        0,
        0,
        0,
        -1.6292067939183141e-05,
        -99.999999999998678,
        0,
        0,
        99.999999999998678,
        -1.6292067939183141e-05,
        0,
        0,
        0,
        0,
        1
      ],
      "name": "couch_base_low"
    },
    {
      "mesh": 3,
      "name": "couch_base_low_Material.007_0"
    },
    {
      "children": [
        13
      ],
      "matrix": [
        100,
        0,
        0,
        0,
        0,
        -1.6292067939183141e-05,
        -99.999999999998678,
        0,
        0,
        99.999999999998678,
        -1.6292067939183141e-05,
        0,
        0,
        0,
        0,
        1
      ],
      "name": "couch_armrest1_low"
    },
    {
      "mesh": 4,
      "name": "couch_armrest1_low_Material.005_0"
    },
    {
      "children": [
        15
      ],
      "matrix": [
        100,
        0,
        0,
        0,
        0,
        -1.6292067939183141e-05,
        -99.999999999998678,
        0,
        0,
        99.999999999998678,
        -1.6292067939183141e-05,
        0,
        0,
        0,
        0,
        1
      ],
      "name": "couch_stand3"
    },
    {
      "mesh": 5,
      "name": "couch_stand3_couch_standMaterial_0"
    },
    {
      "children": [
        17
      ],
      "matrix": [
        100,
        0,
        0,
        0,
        0,
        -1.6292067939183141e-05,
        -99.999999999998678,
        0,
        0,
        99.999999999998678,
        -1.6292067939183141e-05,
        0,
        0,
        0,
        0,
        1
      ],
      "name": "couch_stand4"
    },
    {
      "mesh": 6,
      "name": "couch_stand4_couch_standMaterial_0"
    },
    {
      "children": [
        19
      ],
      "matrix": [
        100,
        0,
        0,
        0,
        0,
        -1.6292067939183141e-05,
        -99.999999999998678,
        0,
        0,
        99.999999999998678,
        -1.6292067939183141e-05,
        0,
        0,
        0,
        0,
        1
      ],
      "name": "couch_stand1"
    },
    {
      "mesh": 7,
      "name": "couch_stand1_couch_standMaterial_0"
    },
    {
      "children": [
        21
      ],
      "matrix": [
        100,
        0,
        0,
        0,
        0,
        -1.6292067939183141e-05,
        -99.999999999998678,
        0,
        0,
        99.999999999998678,
        -1.6292067939183141e-05,
        0,
        0,
        0,
        0,
        1
      ],
      "name": "couch_stand2"
    },
    {
      "mesh": 8,
      "name": "couch_stand2_couch_standMaterial_0"
    }
  ],
  "scene": 0,
  "scenes": [
    {
      "name": "OSG_Scene",
      "nodes": [
        0
      ]
    }
  ]
}

